<?xml version="1.0" encoding="UTF-8" standalone="no"?>
<!-- Created with Inkscape (http://www.inkscape.org/) -->

<svg
   xmlns:dc="http://purl.org/dc/elements/1.1/"
   xmlns:cc="http://creativecommons.org/ns#"
   xmlns:rdf="http://www.w3.org/1999/02/22-rdf-syntax-ns#"
   xmlns:svg="http://www.w3.org/2000/svg"
   xmlns="http://www.w3.org/2000/svg"
   xmlns:sodipodi="http://sodipodi.sourceforge.net/DTD/sodipodi-0.dtd"
   xmlns:inkscape="http://www.inkscape.org/namespaces/inkscape"
   width="30"
   height="30"
   viewBox="0 0 7.9374998 7.9375002"
   version="1.1"
   id="svg8"
   inkscape:version="0.92.3 (2405546, 2018-03-11)"
   sodipodi:docname="logo.svg">
  <defs
     id="defs2" />
  <sodipodi:namedview
     id="base"
     pagecolor="#ffffff"
     bordercolor="#666666"
     borderopacity="1.0"
     inkscape:pageopacity="0.0"
     inkscape:pageshadow="2"
     inkscape:zoom="22.4"
     inkscape:cx="17.052707"
     inkscape:cy="12.68754"
     inkscape:document-units="px"
     inkscape:current-layer="layer1"
     showgrid="true"
     units="px"
     inkscape:snap-bbox="true"
     inkscape:bbox-nodes="false"
     inkscape:snap-bbox-edge-midpoints="true"
     inkscape:snap-object-midpoints="true"
     inkscape:window-width="1920"
     inkscape:window-height="1017"
     inkscape:window-x="1912"
     inkscape:window-y="-8"
     inkscape:window-maximized="1">
    <inkscape:grid
       type="xygrid"
       id="grid819"
       empspacing="3"
       enabled="false" />
  </sodipodi:namedview>
  <metadata
     id="metadata5">
    <rdf:RDF>
      <cc:Work
         rdf:about="">
        <dc:format>image/svg+xml</dc:format>
        <dc:type
           rdf:resource="http://purl.org/dc/dcmitype/StillImage" />
        <dc:title></dc:title>
      </cc:Work>
    </rdf:RDF>
  </metadata>
  <g
     inkscape:label="Layer 1"
     inkscape:groupmode="layer"
     id="layer1"
     transform="translate(0,-289.06248)">
    <path
       style="opacity:1;fill:#56bef6;fill-opacity:1;stroke:none;stroke-width:11.26677132;stroke-linecap:butt;stroke-linejoin:round;stroke-miterlimit:4;stroke-dasharray:none;stroke-dashoffset:0;stroke-opacity:1;paint-order:markers stroke fill"
       d="M 15 0 A 15 15 0 0 0 0 15 A 15 15 0 0 0 15 30 A 15 15 0 0 0 30 15 A 15 15 0 0 0 15 0 z M 15 9 A 5.9999603 5.9999603 0 0 1 21 15 A 5.9999603 5.9999603 0 0 1 15 21 A 5.9999603 5.9999603 0 0 1 9 15 A 5.9999603 5.9999603 0 0 1 15 9 z "
       transform="matrix(0.26458333,0,0,0.26458333,0,289.06248)"
       id="path821" />
    <path
       style="opacity:1;fill:#56f687;fill-opacity:1;stroke:none;stroke-width:9.01341724;stroke-linecap:butt;stroke-linejoin:round;stroke-miterlimit:4;stroke-dasharray:none;stroke-dashoffset:0;stroke-opacity:1;paint-order:markers stroke fill"
       d="M 15 3 A 12 12 0 0 0 3 15 A 12 12 0 0 0 15 27 A 12 12 0 0 0 27 15 A 12 12 0 0 0 15 3 z M 15 9 A 5.9999603 5.9999603 0 0 1 21 15 A 5.9999603 5.9999603 0 0 1 15 21 A 5.9999603 5.9999603 0 0 1 9 15 A 5.9999603 5.9999603 0 0 1 15 9 z "
       transform="matrix(0.26458333,0,0,0.26458333,0,289.06248)"
       id="circle823" />
    <path
       style="opacity:1;fill:#f67d56;fill-opacity:1;stroke:none;stroke-width:6.76006269;stroke-linecap:butt;stroke-linejoin:round;stroke-miterlimit:4;stroke-dasharray:none;stroke-dashoffset:0;stroke-opacity:1;paint-order:markers stroke fill"
       d="M 15 6 A 8.9999996 8.9999996 0 0 0 6 15 A 8.9999996 8.9999996 0 0 0 15 24 A 8.9999996 8.9999996 0 0 0 24 15 A 8.9999996 8.9999996 0 0 0 15 6 z M 15 9 A 5.9999603 5.9999603 0 0 1 21 15 A 5.9999603 5.9999603 0 0 1 15 21 A 5.9999603 5.9999603 0 0 1 9 15 A 5.9999603 5.9999603 0 0 1 15 9 z "
       id="circle825"
       transform="matrix(0.26458333,0,0,0.26458333,0,289.06248)" />
  </g>
</svg>
